# xmcd
#
# Track frame offsets:
#	150
#	18038
#	33292
#	45080
#	61655
#	76505
#	87274
#	101346
#	120771
#
# Disc length: 1829 seconds
#
# Revision: 0
# Processed by: cddbd v1.5.2PL0 Copyright (c) Steve Scherf et al.
# Submitted via: dBpowerAMP V4.0
#
DISCID=46072309
DTITLE=Dear Sister - Dear Sister
DYEAR=2011
DGENRE=
TTITLE0=Hey Oh
TTITLE1=Sailor's Daughter
TTITLE2=Coyote
TTITLE3=Morning Lark
TTITLE4=Con Man
TTITLE5=Rooster
TTITLE6=Cocaine Lady
TTITLE7=Singer In The Prison
TTITLE8=Hallelujah
EXTD=
EXTT0=
EXTT1=
EXTT2=
EXTT3=
EXTT4=
EXTT5=
EXTT6=
EXTT7=
EXTT8=
PLAYORDER=
